<svg width="50" height="50" viewBox="0 0 50 50" fill="none" xmlns="http://www.w3.org/2000/svg">
<rect width="50" height="50" fill="#FEF100"/>
<path d="M21.3503 34.3C19.7503 34.3 18.3403 33.96 17.1203 33.28C15.9003 32.6 14.9403 31.66 14.2403 30.46C13.5603 29.26 13.2203 27.89 13.2203 26.35C13.2203 24.81 13.5603 23.44 14.2403 22.24C14.9403 21.04 15.9003 20.1 17.1203 19.42C18.3403 18.74 19.7503 18.4 21.3503 18.4C22.6903 18.4 23.8903 18.65 24.9503 19.15C26.0303 19.63 26.9103 20.3 27.5903 21.16C28.2903 22.02 28.7403 23.03 28.9403 24.19H24.5903C24.3703 23.45 23.9703 22.89 23.3903 22.51C22.8303 22.13 22.1703 21.94 21.4103 21.94C20.6903 21.94 20.0603 22.12 19.5203 22.48C19.0003 22.84 18.6003 23.35 18.3203 24.01C18.0403 24.67 17.9003 25.45 17.9003 26.35C17.9003 27.25 18.0403 28.03 18.3203 28.69C18.6003 29.35 19.0003 29.86 19.5203 30.22C20.0603 30.58 20.6903 30.76 21.4103 30.76C22.1703 30.76 22.8303 30.57 23.3903 30.19C23.9703 29.81 24.3703 29.25 24.5903 28.51H28.9403C28.7403 29.67 28.2903 30.68 27.5903 31.54C26.9103 32.4 26.0303 33.08 24.9503 33.58C23.8903 34.06 22.6903 34.3 21.3503 34.3ZM30.625 34V29.05H35.575V34H30.625Z" fill="black"/>
</svg>
