<svg width="208" height="60" viewBox="0 0 208 60" fill="none" xmlns="http://www.w3.org/2000/svg">
<rect width="208" height="60" fill="#FEF100"/>
<path d="M24.9062 41.3C23.3062 41.3 21.8962 40.96 20.6762 40.28C19.4562 39.6 18.4962 38.66 17.7962 37.46C17.1162 36.26 16.7762 34.89 16.7762 33.35C16.7762 31.81 17.1162 30.44 17.7962 29.24C18.4962 28.04 19.4562 27.1 20.6762 26.42C21.8962 25.74 23.3062 25.4 24.9062 25.4C26.2462 25.4 27.4462 25.65 28.5062 26.15C29.5862 26.63 30.4662 27.3 31.1462 28.16C31.8462 29.02 32.2962 30.03 32.4962 31.19H28.1462C27.9262 30.45 27.5262 29.89 26.9462 29.51C26.3862 29.13 25.7262 28.94 24.9662 28.94C24.2462 28.94 23.6162 29.12 23.0762 29.48C22.5562 29.84 22.1562 30.35 21.8762 31.01C21.5962 31.67 21.4562 32.45 21.4562 33.35C21.4562 34.25 21.5962 35.03 21.8762 35.69C22.1562 36.35 22.5562 36.86 23.0762 37.22C23.6162 37.58 24.2462 37.76 24.9662 37.76C25.7262 37.76 26.3862 37.57 26.9462 37.19C27.5262 36.81 27.9262 36.25 28.1462 35.51H32.4962C32.2962 36.67 31.8462 37.68 31.1462 38.54C30.4662 39.4 29.5862 40.08 28.5062 40.58C27.4462 41.06 26.2462 41.3 24.9062 41.3ZM34.6789 41V25.7H39.1789V41H34.6789ZM34.5289 23.66V18.8H39.3289V23.66H34.5289ZM42.9148 41V25.7H47.3248V29.3H47.4148V41H42.9148ZM47.4148 33.02L47.0248 29.39C47.3848 28.09 47.9748 27.1 48.7948 26.42C49.6148 25.74 50.6348 25.4 51.8548 25.4C52.2348 25.4 52.5148 25.44 52.6948 25.52V29.72C52.5948 29.68 52.4548 29.66 52.2748 29.66C52.0948 29.64 51.8748 29.63 51.6148 29.63C50.1748 29.63 49.1148 29.89 48.4348 30.41C47.7548 30.91 47.4148 31.78 47.4148 33.02ZM54.7836 41V25.7H59.2836V41H54.7836ZM54.6336 23.66V18.8H59.4336V23.66H54.6336ZM63.0195 41V19.4H67.5195V41H63.0195ZM78.5155 41.3C76.8355 41.3 75.3555 40.97 74.0755 40.31C72.8155 39.63 71.8255 38.69 71.1055 37.49C70.4055 36.27 70.0555 34.87 70.0555 33.29C70.0555 31.71 70.4055 30.33 71.1055 29.15C71.8255 27.97 72.8155 27.05 74.0755 26.39C75.3555 25.73 76.8355 25.4 78.5155 25.4C80.2155 25.4 81.6955 25.73 82.9555 26.39C84.2355 27.05 85.2255 27.97 85.9255 29.15C86.6255 30.33 86.9755 31.71 86.9755 33.29C86.9755 34.87 86.6155 36.27 85.8955 37.49C85.1955 38.69 84.2055 39.63 82.9255 40.31C81.6655 40.97 80.1955 41.3 78.5155 41.3ZM78.5155 37.76C79.2155 37.76 79.8455 37.58 80.4055 37.22C80.9855 36.86 81.4455 36.35 81.7855 35.69C82.1255 35.01 82.2955 34.2 82.2955 33.26C82.2955 31.88 81.9255 30.82 81.1855 30.08C80.4655 29.32 79.5755 28.94 78.5155 28.94C77.4555 28.94 76.5555 29.32 75.8155 30.08C75.0955 30.84 74.7355 31.9 74.7355 33.26C74.7355 34.2 74.9055 35.01 75.2455 35.69C75.5855 36.35 76.0355 36.86 76.5955 37.22C77.1755 37.58 77.8155 37.76 78.5155 37.76ZM88.5148 41V36.05H93.4648V41H88.5148ZM107.024 41V37.61L107.324 37.67C107.124 38.77 106.524 39.65 105.524 40.31C104.544 40.97 103.364 41.3 101.984 41.3C100.584 41.3 99.3641 40.98 98.3241 40.34C97.3041 39.68 96.5141 38.76 95.9541 37.58C95.3941 36.4 95.1141 35.01 95.1141 33.41C95.1141 31.79 95.4041 30.38 95.9841 29.18C96.5641 27.98 97.3741 27.05 98.4141 26.39C99.4741 25.73 100.704 25.4 102.104 25.4C103.564 25.4 104.744 25.74 105.644 26.42C106.564 27.1 107.104 28.03 107.264 29.21L106.934 29.24V19.4H111.434V41H107.024ZM103.424 37.7C104.484 37.7 105.344 37.33 106.004 36.59C106.664 35.83 106.994 34.75 106.994 33.35C106.994 31.95 106.654 30.88 105.974 30.14C105.314 29.38 104.444 29 103.364 29C102.324 29 101.464 29.38 100.784 30.14C100.124 30.9 99.7941 31.98 99.7941 33.38C99.7941 34.78 100.124 35.85 100.784 36.59C101.464 37.33 102.344 37.7 103.424 37.7ZM122.382 41.3C120.682 41.3 119.202 40.97 117.942 40.31C116.682 39.63 115.702 38.69 115.002 37.49C114.322 36.29 113.982 34.91 113.982 33.35C113.982 31.77 114.322 30.39 115.002 29.21C115.702 28.01 116.672 27.08 117.912 26.42C119.152 25.74 120.592 25.4 122.232 25.4C123.812 25.4 125.182 25.72 126.342 26.36C127.502 27 128.402 27.89 129.042 29.03C129.682 30.17 130.002 31.51 130.002 33.05C130.002 33.37 129.992 33.67 129.972 33.95C129.952 34.21 129.922 34.46 129.882 34.7H116.622V31.73H126.252L125.472 32.27C125.472 31.03 125.172 30.12 124.572 29.54C123.992 28.94 123.192 28.64 122.172 28.64C120.992 28.64 120.072 29.04 119.412 29.84C118.772 30.64 118.452 31.84 118.452 33.44C118.452 35 118.772 36.16 119.412 36.92C120.072 37.68 121.052 38.06 122.352 38.06C123.072 38.06 123.692 37.94 124.212 37.7C124.732 37.46 125.122 37.07 125.382 36.53H129.612C129.112 38.01 128.252 39.18 127.032 40.04C125.832 40.88 124.282 41.3 122.382 41.3ZM138.885 41.3C136.645 41.3 134.865 40.85 133.545 39.95C132.225 39.05 131.505 37.81 131.385 36.23H135.405C135.505 36.91 135.845 37.43 136.425 37.79C137.025 38.13 137.845 38.3 138.885 38.3C139.825 38.3 140.505 38.17 140.925 37.91C141.365 37.63 141.585 37.24 141.585 36.74C141.585 36.36 141.455 36.07 141.195 35.87C140.955 35.65 140.505 35.47 139.845 35.33L137.385 34.82C135.565 34.44 134.225 33.87 133.365 33.11C132.505 32.33 132.075 31.33 132.075 30.11C132.075 28.63 132.645 27.48 133.785 26.66C134.925 25.82 136.515 25.4 138.555 25.4C140.575 25.4 142.185 25.81 143.385 26.63C144.585 27.43 145.245 28.55 145.365 29.99H141.345C141.265 29.47 140.985 29.08 140.505 28.82C140.025 28.54 139.345 28.4 138.465 28.4C137.665 28.4 137.065 28.52 136.665 28.76C136.285 28.98 136.095 29.3 136.095 29.72C136.095 30.08 136.255 30.37 136.575 30.59C136.895 30.79 137.425 30.97 138.165 31.13L140.925 31.7C142.465 32.02 143.625 32.62 144.405 33.5C145.205 34.36 145.605 35.38 145.605 36.56C145.605 38.06 145.015 39.23 143.835 40.07C142.675 40.89 141.025 41.3 138.885 41.3ZM147.972 41V25.7H152.472V41H147.972ZM147.822 23.66V18.8H152.622V23.66H147.822ZM163.112 47.45C160.992 47.45 159.262 47 157.922 46.1C156.602 45.2 155.822 43.98 155.582 42.44H159.842C160.002 42.82 160.342 43.11 160.862 43.31C161.402 43.51 162.082 43.61 162.902 43.61C164.262 43.61 165.252 43.35 165.872 42.83C166.492 42.31 166.802 41.5 166.802 40.4V37.07L167.042 37.13C166.842 38.25 166.262 39.14 165.302 39.8C164.342 40.44 163.152 40.76 161.732 40.76C160.372 40.76 159.182 40.45 158.162 39.83C157.162 39.19 156.382 38.3 155.822 37.16C155.262 36.02 154.982 34.68 154.982 33.14C154.982 31.58 155.272 30.22 155.852 29.06C156.432 27.9 157.242 27 158.282 26.36C159.342 25.72 160.572 25.4 161.972 25.4C163.412 25.4 164.582 25.74 165.482 26.42C166.402 27.1 166.942 28.03 167.102 29.21L166.892 29.24V25.7H171.302V40.34C171.302 42.54 170.572 44.27 169.112 45.53C167.652 46.81 165.652 47.45 163.112 47.45ZM163.292 37.31C164.352 37.31 165.212 36.95 165.872 36.23C166.532 35.49 166.862 34.44 166.862 33.08C166.862 31.72 166.522 30.68 165.842 29.96C165.182 29.22 164.312 28.85 163.232 28.85C162.192 28.85 161.332 29.22 160.652 29.96C159.992 30.7 159.662 31.75 159.662 33.11C159.662 34.47 159.992 35.51 160.652 36.23C161.332 36.95 162.212 37.31 163.292 37.31ZM175.05 41V25.7H179.46V29.3H179.55V41H175.05ZM185.7 41V31.52C185.7 30.68 185.48 30.05 185.04 29.63C184.62 29.21 184 29 183.18 29C182.48 29 181.85 29.16 181.29 29.48C180.75 29.8 180.32 30.24 180 30.8C179.7 31.36 179.55 32.02 179.55 32.78L179.16 29.09C179.66 27.97 180.39 27.08 181.35 26.42C182.33 25.74 183.53 25.4 184.95 25.4C186.65 25.4 187.95 25.88 188.85 26.84C189.75 27.78 190.2 29.05 190.2 30.65V41H185.7Z" fill="black"/>
</svg>
